<svg width="82" height="55" viewBox="0 0 82 55" fill="none" xmlns="http://www.w3.org/2000/svg">
<path d="M80.3411 49.0947C84.7833 24.8335 65.6762 13.785 55.5674 11.2934C51.7232 1.04219 44.889 0.828619 43.3941 1.04219C42.1981 1.21304 42.0415 2.11002 42.1127 2.53715C42.2551 3.24904 42.5825 5.27081 42.7534 7.66275C42.9242 10.0547 41.9703 10.2256 41.472 10.012C36.6881 10.8663 29.3699 13.0731 26.3087 14.0698C12.2988 19.0245 7.65726 31.511 7.08775 37.135C5.30802 39.9825 1.62044 46.5319 1.10788 49.949C0.595316 53.366 2.03333 52.9389 2.81641 52.2982C10.9319 40.552 16.0575 37.135 16.4847 37.135C16.9118 37.135 20.756 36.7078 18.4068 34.9993C16.5274 33.6325 16.0575 32.0094 16.0575 31.3687C15.7158 28.1224 18.478 28.4499 19.9017 29.0194C23.5324 34.145 28.8715 38.8435 29.9394 39.2706C30.7936 39.6123 30.4377 40.2673 30.1529 40.552C28.7292 41.7622 25.0701 44.1827 21.8238 44.1827C18.5776 44.1827 18.7627 45.8912 19.261 46.7455C22.251 49.7354 26.3087 52.2982 35.4921 52.2982C44.6755 52.2982 45.5297 50.5897 50.0146 49.0947C53.6026 47.8987 56.4928 48.8811 57.4895 49.5218C59.8387 50.5185 66.0322 52.8107 72.012 54.0067C77.9919 55.2027 80.0564 51.2304 80.3411 49.0947Z" fill="white" stroke="white"/>
<path d="M66.0107 40.7751C63.4479 28.4736 54.9764 27.9611 51.061 29.2425C45.5083 34.7952 54.0509 44.6193 60.2444 46.3278C65.1991 47.6946 66.153 43.1955 66.0107 40.7751Z" fill="#1F1F1F"/>
</svg>
